<svg xmlns="http://www.w3.org/2000/svg" viewBox="0 0 440 440"><rect width="440" height="440" rx="90" fill="#7d3dfa"/><g fill="#fff" stroke-width="0"><path transform-origin="1135 612" d="M148 115.254c6.469.542 13.54 1.426 14.338 9.548.947 9.782.412 20.045.199 29.895a1387 1387 0 0 0-.685 49.586c14.607-8.884 24.388-12.096 41.63-12.843 46.05-1.99 84.254 23.462 84.25 72.493.001 33.418.246 67.664-1.205 101.137-.312 2.577-1.755 11.24-4.146 12.63-11.94 6.969-41.346 3.427-54.36 2.754-3.253-29.047 2.827-74.963.003-105.974-2.576-18.714-10.154-25.725-28.403-27.745-35.448-3.923-39.134 24.093-38.917 51.884.156 20.19-.235 42.276-.65 62.646-.452 22.333-17.403 18.677-33.749 18.575-8.224-.026-16.503-.371-24.607-1.35-1.28-8.695-.512-23.802-.338-32.944l.54-46.981c.611-50.348 1.09-100.694 2.026-151.034.603-32.753 15.526-34.182 44.074-32.277"/><path transform-origin="1223 453" d="M312.914 65.663c4.274 5.53 5.78 22.976 9.008 31.016 9.099 22.705 30.385 20.536 49.076 29.082-16.16 3.783-34.842 3.23-46.518 17.086-9.188 10.904-8.572 26.137-15.464 38.122-6.883-18.313-3.712-40.88-25.651-49.442-11.187-4.367-22.023-7.304-33.288-11.204 12.084-3.079 27.535-4.345 38.98-9.423 14.539-6.446 18.5-31.145 23.857-45.237"/></g></svg>