<svg xmlns="http://www.w3.org/2000/svg" viewBox="0 0 440 440">
  <rect x="0" y="0" width="440" height="440" rx="90" fill="#7d3dfa" />
  <g transform="translate(-930, -350)">
    <g transform="rotate(12 1137.5 545)">
      <path id="letter-h" 
            fill="#fff" 
            stroke="#fff" 
            stroke-width="0" 
            transform-origin="1135 612"
            transform="scale(1.1)"
            d="M1062.72 479.367C1069.16 478.553 1076.26 477.947 1078.73 485.726 1081.69 495.097 1083.3 505.247 1085.14 514.926 1088.06 531.197 1091.28 547.415 1094.78 563.571 1107.22 551.844 1116.12 546.669 1132.83 542.353 1177.46 530.832 1220.12 547.785 1230.31 595.746 1237.26 628.433 1244.62 661.88 1250.16 694.923 1250.39 697.509 1250.78 706.282 1248.73 708.138 1238.5 717.438 1209 720.087 1196.13 722.135 1186.91 694.399 1183.31 648.222 1174.1 618.476 1167.69 600.706 1158.82 595.424 1140.55 597.243 1105.06 600.775 1107.28 628.946 1113.27 656.084 1117.62 675.8 1121.83 697.485 1125.66 717.496 1129.86 739.435 1112.52 739.383 1096.51 742.682 1088.46 744.367 1080.29 745.75 1072.16 746.478 1069.1 738.239 1066.71 723.302 1064.98 714.324L1055.74 668.257C1045.87 618.882 1035.87 569.537 1026.32 520.103 1020.1 487.94 1034.4 483.439 1062.72 479.367z" />
      <path id="star" 
            fill="#fff" 
            stroke="#fff"
            stroke-width="0"
            transform-origin="1223 453" 
            transform="scale(1)" 
            d="M1213.72 396.572C1219.05 401.093 1224.15 417.845 1228.98 425.038 1242.6 445.355 1262.97 438.808 1283.03 443.281 1268.01 450.341 1249.62 453.684 1241.08 469.665 1234.36 482.241 1238.13 497.013 1233.88 510.169 1223.34 493.688 1221.75 470.955 1198.51 467.141 1186.66 465.195 1175.45 464.575 1163.62 463.103 1174.8 457.579 1189.65 453.128 1199.79 445.781 1212.67 436.453 1211.41 411.47 1213.72 396.572z" />
    </g>
  </g>
</svg>